<svg id="shape" xmlns="http://www.w3.org/2000/svg" width="567" height="500" viewBox="0 0 567 500">
  <defs>
    <style>
      .cls-1 {
        fill: #fff;
        stroke: #fff;
        stroke-width: 1px;
        fill-rule: evenodd;
      }
    </style>
  </defs>
  <path id="Ø_copy" data-name="Ø copy" class="cls-1" d="M128.854,9.309A108.619,108.619,0,0,0,93.962,32.988,114.459,114.459,0,0,0,70.531,67.87a105.752,105.752,0,0,0-8.659,42.775V220.635a107.548,107.548,0,0,0,8.659,43.029,108.969,108.969,0,0,0,58.323,58.306,107.646,107.646,0,0,0,43.042,8.656,105.848,105.848,0,0,0,42.788-8.656,109.642,109.642,0,0,0,58.068-58.306,107.672,107.672,0,0,0,8.66-43.029V183.971H245.246v12.222h22.922v24.442h-0.509a92.819,92.819,0,0,1-7.641,37.428,97.479,97.479,0,0,1-50.937,51.176,91.127,91.127,0,0,1-37.185,7.639,92.9,92.9,0,0,1-37.438-7.639,96.772,96.772,0,0,1-51.192-51.176,92.823,92.823,0,0,1-7.641-37.428V110.644a92.823,92.823,0,0,1,7.641-37.428A96.774,96.774,0,0,1,134.458,22.04,92.893,92.893,0,0,1,171.9,14.4a91.122,91.122,0,0,1,37.185,7.638,97.481,97.481,0,0,1,50.937,51.176,92.818,92.818,0,0,1,7.641,37.428v24.442H245.246v12.222h36.166V110.644a105.873,105.873,0,0,0-8.66-42.774,114.747,114.747,0,0,0-23.431-34.882A109.513,109.513,0,0,0,214.684,9.309,105.975,105.975,0,0,0,171.9.653,107.776,107.776,0,0,0,128.854,9.309Zm143.9-8.148L61.872,321.46v9.166h9.169L281.412,9.818V0.653Z"/>
  <path id="_9_copy" data-name="9 copy" class="cls-1" d="M167.208,333.663H270.372v-20.78H167.208a140.4,140.4,0,0,1-56.585-11.545A146.266,146.266,0,0,1,33.25,223.989a144.325,144.325,0,0,1,0-113.137A146.268,146.268,0,0,1,110.623,33.5a140.405,140.405,0,0,1,56.585-11.545,137.716,137.716,0,0,1,56.2,11.545A147.325,147.325,0,0,1,300.4,110.852a140.285,140.285,0,0,1,11.548,56.568V333.663A140.29,140.29,0,0,1,300.4,390.232a147.332,147.332,0,0,1-76.988,77.349,137.723,137.723,0,0,1-56.2,11.544,140.413,140.413,0,0,1-56.585-11.544A146.275,146.275,0,0,1,33.25,390.232,140.295,140.295,0,0,1,21.7,333.663H0.915A159.837,159.837,0,0,0,14,398.313a172.855,172.855,0,0,0,35.414,52.721,164.614,164.614,0,0,0,117.79,48.872,159.962,159.962,0,0,0,64.67-13.084,165.138,165.138,0,0,0,52.351-35.788,173.291,173.291,0,0,0,35.415-52.721,160.043,160.043,0,0,0,13.088-64.65V167.42a162.8,162.8,0,0,0-13.088-65.034,165.723,165.723,0,0,0-87.766-88.124,160.171,160.171,0,0,0-64.67-13.084,162.89,162.89,0,0,0-65.054,13.084A164.7,164.7,0,0,0,14,102.386,162.588,162.588,0,0,0,.915,167.42,159.83,159.83,0,0,0,14,232.07a172.843,172.843,0,0,0,35.414,52.721,164.614,164.614,0,0,0,117.79,48.872h0Z"/>
  <path id="BLK_copy" data-name="BLK copy" class="cls-1" d="M418.651,317.718a19.04,19.04,0,0,1-.508,4.06,15.773,15.773,0,0,1-1.649,4.313,12.355,12.355,0,0,1-2.792,3.425,5.888,5.888,0,0,1-3.934,1.395h-36.8V132.763h36.8a5.909,5.909,0,0,1,3.934,1.395,12.472,12.472,0,0,1,2.792,3.425,15.823,15.823,0,0,1,1.649,4.313,19.063,19.063,0,0,1,.508,4.06v67.487a12.56,12.56,0,0,1-3.172,5.835q-2.666,3.045-4.949,3.552a14.064,14.064,0,0,1,5.2,3.806,9.16,9.16,0,0,1,2.919,6.343v84.739Zm-14.593-3.678a30.676,30.676,0,0,0,.635-5.963V238.814a12.847,12.847,0,0,0-1.523-6.47,4.94,4.94,0,0,0-4.568-2.664H386.927v87.531h12.69Q403.424,317.211,404.058,314.04ZM386.927,146.463V215.98H398.6q6.09,0,6.091-9.134V155.6a30.732,30.732,0,0,0-.635-5.963q-0.636-3.169-4.441-3.171h-12.69Zm74.865,184.448V132.763H475.75V317.211h21.572v13.7h-35.53Zm58.37-198.148H534.12V215.98h4.061a7.643,7.643,0,0,0,3.934-1.649,25.33,25.33,0,0,0,4.568-4.06,27.569,27.569,0,0,0,3.68-5.2,10.45,10.45,0,0,0,1.523-4.82V132.763h13.958v73.069a16.35,16.35,0,0,1-1.523,3.3,42.566,42.566,0,0,1-3.172,4.82,39.8,39.8,0,0,1-4.441,4.948,21.3,21.3,0,0,1-5.076,3.678,22.872,22.872,0,0,1,5.2,3.933,56.023,56.023,0,0,1,4.315,4.821,30.745,30.745,0,0,1,3.045,4.566,16.472,16.472,0,0,1,1.4,3.172v91.843H551.632V245.157a9.527,9.527,0,0,0-1.523-4.44,34.464,34.464,0,0,0-3.553-5.074,28.955,28.955,0,0,0-4.314-4.187,9.138,9.138,0,0,0-4.061-2.029h-4.314V330.911H519.908Z"/>
</svg>
