<?xml version="1.0" standalone="no"?>
<!DOCTYPE svg PUBLIC "-//W3C//DTD SVG 20010904//EN"
 "http://www.w3.org/TR/2001/REC-SVG-20010904/DTD/svg10.dtd">
<svg version="1.0" xmlns="http://www.w3.org/2000/svg"
 width="567.000000pt" height="567.000000pt" viewBox="0 0 567.000000 567.000000"
 preserveAspectRatio="xMidYMid meet">
<metadata>
Created by potrace 1.11, written by Peter Selinger 2001-2013
</metadata>
<g transform="translate(0.000000,567.000000) scale(0.100000,-0.100000)"
fill="#000000" stroke="none">
<path d="M0 2835 l0 -2835 2835 0 2835 0 0 2835 0 2835 -2835 0 -2835 0 0
-2835z m3111 2809 c203 -35 463 -124 626 -216 48 -27 89 -45 91 -41 1 4 42 67
90 138 l87 130 58 3 c77 4 87 -6 87 -80 0 -54 -4 -65 -48 -131 -26 -40 -63
-96 -81 -125 l-34 -53 39 -32 c70 -56 205 -190 264 -262 194 -237 342 -551
400 -850 37 -193 42 -377 37 -1410 -3 -870 -6 -992 -21 -1085 -106 -641 -498
-1169 -1071 -1441 -760 -361 -1692 -158 -2232 484 -269 321 -431 720 -450
1106 -6 123 -5 135 12 147 25 19 234 19 257 1 13 -9 19 -42 27 -137 14 -165
34 -269 77 -392 190 -544 633 -937 1198 -1060 87 -19 131 -22 316 -22 184 0
230 3 317 22 636 138 1131 650 1250 1297 15 79 17 210 21 1125 2 705 0 1072
-8 1150 -20 213 -64 368 -156 553 -46 91 -139 247 -149 247 -1 0 4 -28 12 -62
21 -86 31 -651 13 -673 -10 -12 -50 -15 -224 -15 -152 0 -215 3 -224 12 -7 7
-12 41 -12 84 0 101 4 104 141 104 l109 0 0 174 c0 246 -26 371 -113 539 -35
69 -41 76 -52 60 -19 -27 -1610 -2456 -1619 -2471 -20 -34 206 -205 325 -248
86 -30 237 -44 492 -44 l249 0 78 34 c101 43 228 126 308 200 136 127 257 329
301 503 23 90 41 267 41 411 l0 92 -114 0 c-142 0 -146 3 -146 104 0 43 5 77
12 84 9 9 72 12 224 12 174 0 214 -3 224 -15 9 -11 11 -86 7 -312 -4 -254 -8
-311 -25 -383 -61 -257 -184 -474 -365 -646 l-88 -84 163 0 c90 0 170 -5 178
-10 12 -7 15 -35 15 -140 0 -105 -3 -133 -15 -141 -10 -6 -260 -8 -695 -6
-591 3 -692 6 -775 21 -202 36 -367 90 -534 172 -49 24 -92 42 -95 39 -3 -3
-32 -47 -66 -98 l-60 -92 -63 -3 c-82 -4 -92 5 -92 79 0 55 4 65 57 144 l56
86 -23 16 c-73 51 -211 177 -279 253 -237 269 -386 565 -462 919 -26 125 -37
435 -20 578 51 412 233 797 514 1090 304 316 736 526 1177 572 146 15 358 12
461 -5z"/>
<path d="M2670 5354 c-168 -21 -316 -61 -380 -102 -172 -109 -347 -359 -412
-588 -23 -79 -23 -80 -23 -879 0 -799 0 -800 23 -879 21 -76 118 -293 126
-285 3 2 373 564 824 1249 l820 1245 -21 23 c-28 30 -197 113 -302 148 -143
47 -256 65 -445 68 -96 3 -191 2 -210 0z"/>
<path d="M1650 4825 c-98 -112 -168 -215 -235 -347 -161 -313 -209 -671 -140
-1036 33 -174 137 -416 247 -574 63 -92 202 -254 229 -269 18 -9 18 -6 -4 38
-29 58 -61 149 -90 257 -20 79 -21 102 -25 831 -3 543 0 775 8 840 13 96 49
232 80 303 10 23 16 42 12 42 -4 0 -41 -39 -82 -85z"/>
</g>
</svg>
